<svg xmlns="http://www.w3.org/2000/svg" xmlns:xlink="http://www.w3.org/1999/xlink" xmlns:svgjs="http://svgjs.com/svgjs" version="1.1" width="20" height="20" x="0" y="0" viewBox="0 0 128 128" style="enable-background:new 0 0 512 512" xml:space="preserve" class=""><g><path d="M64 128C28.711 128 0 99.289 0 64S28.711 0 64 0s64 28.711 64 64-28.711 64-64 64zM64 8C33.121 8 8 33.121 8 64s25.121 56 56 56 56-25.121 56-56S94.879 8 64 8zm32 56c0-2.211-1.789-4-4-4H36c-2.211 0-4 1.789-4 4s1.789 4 4 4h56c2.211 0 4-1.789 4-4z" fill="#504e4e" data-original="#000000" class=""/></g></svg>